<svg width="980px" height="690px" viewBox="0 0 980 690" version="1.1" xmlns="http://www.w3.org/2000/svg" xmlns:xlink="http://www.w3.org/1999/xlink">
	<!-- Generator: Sketch 48.1 (47250) - http://www.bohemiancoding.com/sketch -->
	<desc>Created with Sketch.</desc>
	<defs>
		<style type="text/css">
			@import url(https://fonts.googleapis.com/css?family=Comfortaa:400,700&amp;subset=cyrillic);
		</style>
		<path d="M226,752 L292,752 L292,781 L226,781 L226,752 Z M722,528 L748,528 L748,551 L722,551 L722,528 Z M383,537 L437,537 L437,557 L383,557 L383,537 Z" id="path-1"></path>
	</defs>
	<g id="2_Service" stroke="none" stroke-width="1" fill="none" fill-rule="evenodd">
		<g id="Map" transform="translate(-75.000000, -149.000000)">
			<g id="RIVER" transform="translate(189.000000, 217.000000)" fill="#00ECFF">
				<g transform="translate(0.000000, 84.000000)">
					<circle id="Oval-4" cx="7" cy="7" r="7"></circle>
					<circle id="Oval-4-Copy" cx="53" cy="7" r="7"></circle>
					<circle id="Oval-4-Copy-2" cx="99" cy="7" r="7"></circle>
					<circle id="Oval-4-Copy-3" cx="145" cy="7" r="7"></circle>
					<circle id="Oval-4-Copy-4" cx="191" cy="7" r="7"></circle>
					<circle id="Oval-4-Copy-5" cx="237" cy="7" r="7"></circle>
					<circle id="Oval-4-Copy-6" cx="283" cy="7" r="7"></circle>
					<circle id="Oval-4-Copy-7" cx="329" cy="7" r="7"></circle>
					<circle id="Oval-4-Copy-8" cx="375" cy="7" r="7"></circle>
					<circle id="Oval-4-Copy-9" cx="421" cy="7" r="7"></circle>
					<circle id="Oval-4-Copy-10" cx="467" cy="7" r="7"></circle>
					<circle id="Oval-4-Copy-11" cx="513" cy="7" r="7"></circle>
					<circle id="Oval-4-Copy-12" cx="559" cy="7" r="7"></circle>
					<circle id="Oval-4-Copy-13" cx="605" cy="7" r="7"></circle>
					<circle id="Oval-4-Copy-14" cx="651" cy="7" r="7"></circle>
				</g>
				<g id="RIVER-Copy" transform="translate(0.000000, 56.000000)">
					<circle id="Oval-4" cx="7" cy="7" r="7"></circle>
					<circle id="Oval-4-Copy" cx="53" cy="7" r="7"></circle>
					<circle id="Oval-4-Copy-2" cx="99" cy="7" r="7"></circle>
					<circle id="Oval-4-Copy-3" cx="145" cy="7" r="7"></circle>
					<circle id="Oval-4-Copy-4" cx="191" cy="7" r="7"></circle>
					<circle id="Oval-4-Copy-5" cx="237" cy="7" r="7"></circle>
					<circle id="Oval-4-Copy-6" cx="283" cy="7" r="7"></circle>
					<circle id="Oval-4-Copy-7" cx="329" cy="7" r="7"></circle>
					<circle id="Oval-4-Copy-8" cx="375" cy="7" r="7"></circle>
					<circle id="Oval-4-Copy-9" cx="421" cy="7" r="7"></circle>
					<circle id="Oval-4-Copy-10" cx="467" cy="7" r="7"></circle>
					<circle id="Oval-4-Copy-11" cx="513" cy="7" r="7"></circle>
					<circle id="Oval-4-Copy-12" cx="559" cy="7" r="7"></circle>
					<circle id="Oval-4-Copy-13" cx="605" cy="7" r="7"></circle>
					<circle id="Oval-4-Copy-14" cx="651" cy="7" r="7"></circle>
					<circle id="Oval-4-Copy-15" cx="697" cy="7" r="7"></circle>
				</g>
				<g id="RIVER-Copy-2" transform="translate(0.000000, 28.000000)">
					<circle id="Oval-4" cx="7" cy="7" r="7"></circle>
					<circle id="Oval-4-Copy" cx="53" cy="7" r="7"></circle>
					<circle id="Oval-4-Copy-2" cx="99" cy="7" r="7"></circle>
					<circle id="Oval-4-Copy-3" cx="145" cy="7" r="7"></circle>
					<circle id="Oval-4-Copy-4" cx="191" cy="7" r="7"></circle>
					<circle id="Oval-4-Copy-5" cx="237" cy="7" r="7"></circle>
					<circle id="Oval-4-Copy-6" cx="283" cy="7" r="7"></circle>
					<circle id="Oval-4-Copy-7" cx="329" cy="7" r="7"></circle>
					<circle id="Oval-4-Copy-8" cx="375" cy="7" r="7"></circle>
					<circle id="Oval-4-Copy-9" cx="421" cy="7" r="7"></circle>
					<circle id="Oval-4-Copy-10" cx="467" cy="7" r="7"></circle>
					<circle id="Oval-4-Copy-11" cx="513" cy="7" r="7"></circle>
					<circle id="Oval-4-Copy-12" cx="559" cy="7" r="7"></circle>
					<circle id="Oval-4-Copy-13" cx="605" cy="7" r="7"></circle>
					<circle id="Oval-4-Copy-14" cx="651" cy="7" r="7"></circle>
					<circle id="Oval-4-Copy-15" cx="697" cy="7" r="7"></circle>
				</g>
				<g id="RIVER-Copy-3">
					<circle id="Oval-4" cx="7" cy="7" r="7"></circle>
					<circle id="Oval-4-Copy" cx="53" cy="7" r="7"></circle>
					<circle id="Oval-4-Copy-2" cx="99" cy="7" r="7"></circle>
					<circle id="Oval-4-Copy-3" cx="145" cy="7" r="7"></circle>
					<circle id="Oval-4-Copy-4" cx="191" cy="7" r="7"></circle>
					<circle id="Oval-4-Copy-5" cx="237" cy="7" r="7"></circle>
					<circle id="Oval-4-Copy-6" cx="283" cy="7" r="7"></circle>
					<circle id="Oval-4-Copy-7" cx="329" cy="7" r="7"></circle>
					<circle id="Oval-4-Copy-8" cx="375" cy="7" r="7"></circle>
					<circle id="Oval-4-Copy-9" cx="421" cy="7" r="7"></circle>
					<circle id="Oval-4-Copy-10" cx="467" cy="7" r="7"></circle>
					<circle id="Oval-4-Copy-11" cx="513" cy="7" r="7"></circle>
					<circle id="Oval-4-Copy-12" cx="559" cy="7" r="7"></circle>
					<circle id="Oval-4-Copy-13" cx="605" cy="7" r="7"></circle>
					<circle id="Oval-4-Copy-14" cx="651" cy="7" r="7"></circle>
					<circle id="Oval-4-Copy-15" cx="697" cy="7" r="7"></circle>
				</g>
			</g>
			<path d="M934.187086,155.5 L879.687851,323.5 L1007.32363,323.5 L1007.32363,155.5 L934.187086,155.5 Z" id="Rectangle-4" stroke="#08FF64"></path>
			<rect id="Rectangle-2" stroke="#FF0000" stroke-width="3" x="172.5" y="385.5" width="326" height="151"></rect>
			<rect id="Rectangle-2" stroke="#FF0000" stroke-width="3" x="574.5" y="610.5" width="215" height="116"></rect>
			<path d="M172.5,596.5 L172.5,670.438609 L268.342526,710.873237 L448.685992,712.536447 L478.576262,652.737516 L478.576262,596.5 L172.5,596.5 Z" id="Rectangle-2-Copy" stroke="#FF0000" stroke-width="3"></path>
			<path d="M544.5,385.5 L544.5,536.5 L766.614507,536.5 L766.614507,482.969645 L870.5,483.427718 L870.5,385.5 L544.5,385.5 Z" id="Rectangle-2" stroke="#FF0000" stroke-width="3"></path>
			<rect id="Rectangle-6" stroke="#00ECFF" x="951.5" y="501.5" width="67" height="31"></rect>
			<rect id="Rectangle-6-Copy" stroke="#00ECFF" x="898.5" y="543.5" width="120" height="54"></rect>
			<rect id="Rectangle-6-Copy-4" stroke="#00ECFF" x="791.5" y="673.5" width="101" height="77"></rect>
			<rect id="Rectangle-6-Copy-2" stroke="#00ECFF" x="951.5" y="598.5" width="67" height="39"></rect>
			<rect id="Rectangle-6-Copy-3" stroke="#00ECFF" x="951.5" y="638.5" width="67" height="39"></rect>
			<rect id="Rectangle-6-Copy-3" stroke="#00ECFF" x="951.5" y="677.5" width="67" height="19"></rect>
			<g id="Group" transform="translate(75.000000, 213.000000)" stroke="#FFFFFF" stroke-linecap="square" stroke-width="2">
				<path d="M1.5,0.5 L1.5,518.508687" id="Line-2"></path>
				<path d="M6.5,0.5 L6.5,518.508687" id="Line-2-Copy"></path>
			</g>
			<g id="Railway" transform="translate(81.000000, 213.000000)" stroke="#FFFFFF">
				<rect id="Rectangle-3" x="0.5" y="20.5" width="51" height="4"></rect>
				<rect id="Rectangle-3-Copy" x="0.5" y="37.5" width="51" height="4"></rect>
				<rect id="Rectangle-3-Copy-2" x="0.5" y="54.5" width="51" height="4"></rect>
				<rect id="Rectangle-3-Copy-3" x="0.5" y="71.5" width="51" height="4"></rect>
				<rect id="Rectangle-3-Copy-4" x="0.5" y="88.5" width="51" height="4"></rect>
				<rect id="Rectangle-3-Copy-5" x="0.5" y="105.5" width="51" height="4"></rect>
				<rect id="Rectangle-3-Copy-6" x="0.5" y="122.5" width="51" height="4"></rect>
				<rect id="Rectangle-3-Copy-7" x="0.5" y="139.5" width="51" height="4"></rect>
				<rect id="Rectangle-3-Copy-8" x="0.5" y="156.5" width="51" height="4"></rect>
				<rect id="Rectangle-3-Copy-9" x="0.5" y="173.5" width="51" height="4"></rect>
				<rect id="Rectangle-3-Copy-10" x="0.5" y="190.5" width="51" height="4"></rect>
				<rect id="Rectangle-3-Copy-11" x="0.5" y="207.5" width="51" height="4"></rect>
				<rect id="Rectangle-3-Copy-12" x="0.5" y="224.5" width="51" height="4"></rect>
				<rect id="Rectangle-3-Copy-13" x="0.5" y="241.5" width="51" height="4"></rect>
				<rect id="Rectangle-3-Copy-14" x="0.5" y="258.5" width="51" height="4"></rect>
				<rect id="Rectangle-3-Copy-15" x="0.5" y="275.5" width="51" height="4"></rect>
				<rect id="Rectangle-3-Copy-16" x="0.5" y="292.5" width="51" height="4"></rect>
				<rect id="Rectangle-3-Copy-17" x="0.5" y="309.5" width="51" height="4"></rect>
				<rect id="Rectangle-3-Copy-18" x="0.5" y="326.5" width="51" height="4"></rect>
				<rect id="Rectangle-3-Copy-19" x="0.5" y="343.5" width="51" height="4"></rect>
				<rect id="Rectangle-3-Copy-20" x="0.5" y="360.5" width="51" height="4"></rect>
				<rect id="Rectangle-3-Copy-21" x="0.5" y="377.5" width="51" height="4"></rect>
				<rect id="Rectangle-3-Copy-22" x="0.5" y="394.5" width="51" height="4"></rect>
				<rect id="Rectangle-3-Copy-23" x="0.5" y="411.5" width="51" height="4"></rect>
				<rect id="Rectangle-3-Copy-24" x="0.5" y="428.5" width="51" height="4"></rect>
				<rect id="Rectangle-3-Copy-25" x="0.5" y="445.5" width="51" height="4"></rect>
				<rect id="Rectangle-3-Copy-26" x="0.5" y="462.5" width="51" height="4"></rect>
				<rect id="Rectangle-3-Copy-27" x="0.5" y="479.5" width="51" height="4"></rect>
				<rect id="Rectangle-3-Copy-28" x="0.5" y="496.5" width="51" height="4"></rect>
				<g id="Group-Copy" transform="translate(50.000000, 0.000000)" stroke-linecap="square" stroke-width="2">
					<path d="M1.5,0.5 L1.5,518.508687" id="Line-2"></path>
					<path d="M6.5,0.5 L6.5,518.508687" id="Line-2-Copy"></path>
				</g>
				<path d="M26,0.5 L26,518.508687" id="Line-2" stroke-width="2" stroke-linecap="square"></path>
			</g>
			<polyline id="Path-3" stroke="#FFFFFF" stroke-width="4" points="77 213.95393 174.274021 213.95393 174.274021 322.59387 878.333413 322.59387 933.802216 155"></polyline>
			<rect id="Rectangle-5-Copy" stroke="#FFFFFF" x="646.5" y="585.5" width="53" height="25"></rect>
			<rect id="Rectangle-5-Copy-3" stroke="#FFFFFF" x="576.5" y="609.5" width="105" height="45"></rect>
			<rect id="Rectangle-5-Copy-3" stroke="#FFFFFF" transform="translate(629.000000, 691.000000) scale(1, -1) translate(-629.000000, -691.000000) " x="576.5" y="655.5" width="105" height="71"></rect>
			<rect id="Rectangle-5-Copy-2" stroke="#FFFFFF" stroke-width="4" x="502" y="733" width="50" height="16"></rect>
			<path d="M1018.5,671.5 L1018.5,149.499042" id="Line-3" stroke="#FFFFFF" stroke-linecap="square"></path>
			<rect id="Rectangle-5-Copy" stroke="#00ECFF" x="766.5" y="728.5" width="25" height="22"></rect>
			<rect id="Rectangle-5-Copy" stroke="#00ECFF" x="870.5" y="560.5" width="28" height="19"></rect>
			<path d="M149.5,368.5 L903.56631,368.5" id="Line-4" stroke="#FFFFFF" stroke-width="2" stroke-linecap="square" stroke-dasharray="10"></path>
			<path d="M903.56631,515.000642 L903.56631,368.5" id="Line-4" stroke="#FFFFFF" stroke-width="2" stroke-linecap="square" stroke-dasharray="10"></path>
			<path d="M903.56631,515.000642 L847,537" id="Line-4" stroke="#FFFFFF" stroke-width="2" stroke-linecap="square" stroke-dasharray="10"></path>
			<path d="M893,659 L788,556" id="Line-4" stroke="#FFFFFF" stroke-width="2" stroke-linecap="square" stroke-dasharray="10"></path>
			<path d="M847,640 L847,409" id="Line-4" stroke="#FFFFFF" stroke-width="2" stroke-linecap="square" stroke-dasharray="10"></path>
			<path d="M847,640 L764,640" id="Line-4" stroke="#FFFFFF" stroke-width="2" stroke-linecap="square" stroke-dasharray="10"></path>
			<path d="M521.993846,409 L847,409" id="Line-4" stroke="#FFFFFF" stroke-width="2" stroke-linecap="square" stroke-dasharray="10"></path>
			<path d="M149.5,572.5 L846,572.5" id="Line-4-Copy" stroke="#FFFFFF" stroke-width="2" stroke-linecap="square" stroke-dasharray="10"></path>
			<path d="M149.5,669 L149.5,371" id="Line-4-Copy" stroke="#FFFFFF" stroke-width="2" stroke-linecap="square" stroke-dasharray="10"></path>
			<path d="M149.5,669 L230,726" id="Line-4-Copy" stroke="#FFFFFF" stroke-width="2" stroke-linecap="square" stroke-dasharray="10"></path>
			<path d="M520.015517,726 L230,726" id="Line-4-Copy" stroke="#FFFFFF" stroke-width="2" stroke-linecap="square" stroke-dasharray="10"></path>
			<path d="M520.015517,726 L520.015517,366.950123" id="Line-4-Copy" stroke="#FFFFFF" stroke-width="2" stroke-linecap="square" stroke-dasharray="10"></path>
			<rect id="Rectangle-5-Copy" stroke="#FFFFFF" x="665.5" y="364.5" width="90" height="22"></rect>
			<path d="M521.993846,600 L847,600" id="Line-4" stroke="#FFFFFF" stroke-width="2" stroke-linecap="square" stroke-dasharray="10"></path>
			<polyline id="Path-4" stroke="#FFFFFF" points="920 767.184655 920 716.176615 951.71986 677"></polyline>
			<polyline id="Path-2" stroke="#FFFFFF" stroke-width="4" points="76 732 160.603784 732 160.603784 769.113961 918.865486 769.113961"></polyline>
			<g id="Rectangle-5">
				<use fill="#000000" fill-rule="evenodd" xlink:href="#path-1"></use>
				<path stroke="#FFFFFF" stroke-width="1" d="M226.5,752.5 L226.5,780.5 L291.5,780.5 L291.5,752.5 L226.5,752.5 Z M722.5,528.5 L722.5,550.5 L747.5,550.5 L747.5,528.5 L722.5,528.5 Z M383.5,537.5 L383.5,556.5 L436.5,556.5 L436.5,537.5 L383.5,537.5 Z"></path>
			</g>
			<rect id="Rectangle-5-Copy" stroke="#FFFFFF" x="569.5" y="628.5" width="13" height="19"></rect>
			<path d="M1013,786 L961.5,742.5" id="Line-5" stroke="#FF0000" stroke-width="4" stroke-linecap="square"></path>
			<path id="Line-5-decoration-1" d="M971.686477,747.177146 L961.5,742.5 L967.814814,751.760838" stroke="#FF0000" stroke-width="4" stroke-linecap="square"></path>
			<g id="Group-4" transform="translate(207.000000, 172.000000)">
				<text id="въезд" font-family="Comfortaa" font-size="20" font-weight="400" fill="#FFFFFF">
					<tspan x="781" y="646">въезд</tspan>
				</text>
				<text id="Дон" font-family="Comfortaa" font-size="24" font-weight="700" fill="#F7F3F2">
					<tspan x="280" y="26">Дон</tspan>
				</text>
				<text id="Склад" font-family="Comfortaa" font-size="24" font-weight="700" fill="#F7F3F2">
					<tspan x="440" y="524">Склад</tspan>
				</text>
				<text id="Планируемый-выезд" font-family="Comfortaa" font-size="24" font-weight="700" fill="#F7F3F2">
					<tspan x="0" y="653">Планируемый выезд</tspan>
				</text>
			</g>
		</g>
	</g>
</svg>